<svg xmlns="http://www.w3.org/2000/svg" xmlns:xlink="http://www.w3.org/1999/xlink" width="548" height="266" viewBox="0 0 548 266">
  <defs>
    <clipPath id="clip-path">
      <rect id="Rectangle_7421" data-name="Rectangle 7421" width="548" height="266" transform="translate(1052)" fill="#00539b"/>
    </clipPath>
    <clipPath id="clip-path-2">
      <path id="Path_31180" data-name="Path 31180" d="M0,0H1600V267H0Z" transform="translate(0 3066)" fill="#00539b"/>
    </clipPath>
  </defs>
  <g id="Mask_Group_37" data-name="Mask Group 37" transform="translate(-1052)" clip-path="url(#clip-path)">
    <g id="Mask_Group_35" data-name="Mask Group 35" transform="translate(0 -3066)" clip-path="url(#clip-path-2)">
      <g id="Group_75" data-name="Group 75" transform="translate(-86.35 412)" opacity="0.08">
        <path id="Path_172" data-name="Path 172" d="M39.175,31.358S373.716,3.169,0,281.133c0,0,480.67-309.59,39.175-249.774" transform="translate(1107 2759.273)" fill="#fff"/>
        <path id="Path_173" data-name="Path 173" d="M72.267,0S-53.695,287.707,338.39,10.01c0,0-285.679,175.385-266.123-10.01" transform="translate(1297.779 2674)" fill="#fff"/>
        <path id="Path_174" data-name="Path 174" d="M320.355,9.516s-482.68,125.971-79.242,292.123c2.82,1.159-.846-1.688,1.762-.065,0,0-293.978-140.806,77.48-292.059" transform="translate(1395.995 2708.259)" fill="#fff"/>
        <path id="Path_175" data-name="Path 175" d="M6.546,262.219s203.847-425.3,453.226-59.209c0,0-225.928-254.356-453.226,59.209" transform="translate(1130.567 2869.671)" fill="#fff"/>
      </g>
    </g>
  </g>
</svg>
